<svg width="19" height="19" viewBox="0 0 19 19" fill="none" xmlns="http://www.w3.org/2000/svg">
<path d="M11.812 14.646C11.2734 14.646 10.8194 14.4601 10.45 14.0882C10.0806 13.7163 9.89583 13.2611 9.89583 12.7226C9.89583 12.184 10.0818 11.73 10.4536 11.3606C10.8255 10.9911 11.2807 10.8064 11.8192 10.8064C12.3578 10.8064 12.8118 10.9923 13.1812 11.3642C13.5507 11.7361 13.7354 12.1913 13.7354 12.7298C13.7354 13.2684 13.5495 13.7224 13.1776 14.0918C12.8058 14.4613 12.3506 14.646 11.812 14.646ZM3.5625 17.4168C3.24583 17.4168 2.96875 17.2981 2.73125 17.0606C2.49375 16.8231 2.375 16.546 2.375 16.2293V3.9585C2.375 3.64183 2.49375 3.36475 2.73125 3.12725C2.96875 2.88975 3.24583 2.771 3.5625 2.771H4.84896V1.5835H6.13542V2.771H12.8646V1.5835H14.151V2.771H15.4375C15.7542 2.771 16.0312 2.88975 16.2688 3.12725C16.5062 3.36475 16.625 3.64183 16.625 3.9585V16.2293C16.625 16.546 16.5062 16.8231 16.2688 17.0606C16.0312 17.2981 15.7542 17.4168 15.4375 17.4168H3.5625ZM3.5625 16.2293H15.4375V7.71891H3.5625V16.2293Z" fill="#858585"/>
</svg>
